<?xml version="1.0" encoding="utf-8"?>
<!-- Generator: Adobe Illustrator 17.0.1, SVG Export Plug-In . SVG Version: 6.00 Build 0)  -->
<!DOCTYPE svg PUBLIC "-//W3C//DTD SVG 1.1//EN" "http://www.w3.org/Graphics/SVG/1.1/DTD/svg11.dtd">
<svg version="1.1" id="Layer_1" xmlns="http://www.w3.org/2000/svg" xmlns:xlink="http://www.w3.org/1999/xlink" x="0px" y="0px"
	 width="120.742px" height="120.698px" viewBox="0 0 120.742 120.698" enable-background="new 0 0 120.742 120.698"
	 xml:space="preserve">
<g id="Layer_2">
	<path stroke="#FFFFFF" d="M110.598,39.25c0,0,2.052,1.15,3.576,3.591c0.357-2.085,0.442-4.156,0.374-6.303
		c-0.106-3.335-0.112-6.624,0.006-9.955c0.079-2.239,0.872-9.257-0.814-12.292c-0.822,0.421-1.472,1.039-2.392,1.96
		c-1.875,1.875-1.5,6.25-1.5,6.25s-1.278,0.172-3.318,0.444c-7.714,1.03-26.325,3.497-27.932,3.556
		c-8.241,0.299-5.625-3.5-15.125-2.5c-5.07,0.533-54.5,6.25-55.75,6.25S3.504,30.816,4.598,34c4.406,12.826,5.542,29.451,5.125,34.5
		c-0.539,6.527,20.125-3,46.125-10.75c17.689-5.273,44.449-14.798,52.427-17.663C109.764,39.553,110.598,39.25,110.598,39.25z"/>
</g>
</svg>
