<?xml version="1.0" encoding="utf-8"?>
<!-- Generator: Adobe Illustrator 17.0.1, SVG Export Plug-In . SVG Version: 6.00 Build 0)  -->
<!DOCTYPE svg PUBLIC "-//W3C//DTD SVG 1.1//EN" "http://www.w3.org/Graphics/SVG/1.1/DTD/svg11.dtd">
<svg version="1.1" id="Layer_1" xmlns="http://www.w3.org/2000/svg" xmlns:xlink="http://www.w3.org/1999/xlink" x="0px" y="0px"
	 width="192.742px" height="120.698px" viewBox="207.742 0 192.742 120.698" enable-background="new 207.742 0 192.742 120.698"
	 xml:space="preserve">
<g id="Layer_3">
	<path stroke="#FFFFFF" d="M397.233,20.416c-0.625-1.25-0.5-11.625-0.5-11.625l-0.125-5.25l-5.125,0.125l-4.75,10.125l-4.75,7.25
		c0,0-18.748,0.41-26.75,0.25c-12.5-0.25-19.625-7.125-19.625-7.125l-0.375-4.75l-40.75-0.25c0,0,0.25-1.75-0.75-2
		s-49.5-0.125-49.5-0.125l-0.75-1.625c0,0-8.125,0-10.125,0.125s-4.375,2.75-6,3s-5.625,0.125-5.625,0.125l-0.125-6.875
		l-6.125-0.125c0,0-0.25,2.5,0,5.75c-0.606,0-1.44,0.001-2.456,0.002c0.009,0.141,0.018,0.283,0.016,0.431
		c-0.062,5.153-0.733,10.281-0.72,15.438c0.008,3.068-0.55,10.004,2.577,11.911c1.772,1.081,2.446,2.714,2.366,4.316
		c2.125-0.015,3.839-0.012,4.342,0.027c1.625,0.125,6.991,4.867,9.875,4.875c11.603,0.037,13.625-5.625,22.375-5.75
		c4.003-0.057,46.375,0,46.375,0v-7.375l100.125,0.125l0.125-9.875C400.483,21.541,397.858,21.666,397.233,20.416z"/>
</g>
</svg>
