<?xml version="1.0" encoding="utf-8"?>
<!-- Generator: Adobe Illustrator 17.0.1, SVG Export Plug-In . SVG Version: 6.00 Build 0)  -->
<!DOCTYPE svg PUBLIC "-//W3C//DTD SVG 1.1//EN" "http://www.w3.org/Graphics/SVG/1.1/DTD/svg11.dtd">
<svg version="1.1" id="Layer_1" xmlns="http://www.w3.org/2000/svg" xmlns:xlink="http://www.w3.org/1999/xlink" x="0px" y="0px"
	 width="148px" height="120.698px" viewBox="99.742 0 148 120.698" enable-background="new 99.742 0 148 120.698"
	 xml:space="preserve">
<g id="svg2" xmlns:rdf="http://www.w3.org/1999/02/22-rdf-syntax-ns#" xmlns:dc="http://purl.org/dc/elements/1.1/" xmlns:svg="http://www.w3.org/2000/svg" xmlns:cc="http://creativecommons.org/ns#">
	<path stroke="#FFFFFF" d="M238.931,94.168C209.93,74.832,209.1,42.804,209.096,39.326c-5.983-8.403-2.8-22.908-2.688-32.143
		c0.002-0.143,0.014-0.279,0.025-0.416c-25.531,0.046-78.318,0.184-81.46,0.359c-2.25,0.125-4.592,1.48-5.651,2.594
		c-1.178,1.238-1.907,3.229-1.974,4.281c-0.261,0.019-0.501,0.042-0.732,0.066c1.806,3.892,1.909,8.742,1.913,12.835
		c0.005,4.351,0.363,9.091-0.205,13.406c-0.3,2.275-1.394,4.336-2.934,5.743c0.998,3.279,0.708,6.7,0.708,6.7s-9.5,22.25-12,26
		s1.5,4,1.5,4l17,4.625c1.75,0.418,2.791-0.125,3.291-1.916c0.766-2.744,1.168-13.584,3.168-16.584c2-3,10.875-13.376,10.875-13.376
		h37.916l-0.041-15.584c0,0,0.125,0.584,2.457,0.25c0,40.148,33.912,74.346,44.751,79.959c2.884,1.494,3.75-0.25,4.5-1.625
		s9.416-15.332,10.75-18C241.598,97.834,242.931,96.834,238.931,94.168z M141.781,52.808l0.067-12.582l25.875,0.125
		c-1.029,0.398,1.125,12.25,1.125,12.25L141.781,52.808z"/>
</g>
</svg>
