<?xml version="1.0" encoding="utf-8"?>
<!-- Generator: Adobe Illustrator 17.0.1, SVG Export Plug-In . SVG Version: 6.00 Build 0)  -->
<!DOCTYPE svg PUBLIC "-//W3C//DTD SVG 1.1//EN" "http://www.w3.org/Graphics/SVG/1.1/DTD/svg11.dtd">
<svg version="1.1" xmlns="http://www.w3.org/2000/svg" xmlns:xlink="http://www.w3.org/1999/xlink" x="0px" y="0px"
	 width="400.483px" height="120.698px" viewBox="0 0 400.483 120.698" enable-background="new 0 0 400.483 120.698"
	 xml:space="preserve">
<g id="Layer_2">
	<path stroke="#FFFFFF" d="M110.598,39.25c0,0,2.052,1.15,3.576,3.591c0.357-2.085,0.442-4.156,0.374-6.303
		c-0.106-3.335-0.112-6.624,0.006-9.955c0.079-2.239,0.872-9.257-0.814-12.292c-0.822,0.421-1.472,1.039-2.392,1.96
		c-1.875,1.875-1.5,6.25-1.5,6.25s-1.278,0.172-3.318,0.444c-7.714,1.03-26.325,3.497-27.932,3.556
		c-8.241,0.299-5.625-3.5-15.125-2.5c-5.07,0.533-54.5,6.25-55.75,6.25S3.504,30.816,4.598,34c4.406,12.826,5.542,29.451,5.125,34.5
		c-0.539,6.527,20.125-3,46.125-10.75c17.689-5.273,44.449-14.798,52.427-17.663C109.764,39.553,110.598,39.25,110.598,39.25z"/>
</g>
<g id="svg2" xmlns:dc="http://purl.org/dc/elements/1.1/" xmlns:cc="http://creativecommons.org/ns#" xmlns:rdf="http://www.w3.org/1999/02/22-rdf-syntax-ns#" xmlns:svg="http://www.w3.org/2000/svg">
	<path stroke="#FFFFFF" d="M238.931,94.168C209.93,74.832,209.1,42.804,209.096,39.326c-5.983-8.403-2.8-22.908-2.688-32.143
		c0.002-0.143,0.014-0.279,0.025-0.416c-25.531,0.046-78.318,0.184-81.46,0.359c-2.25,0.125-4.592,1.48-5.651,2.594
		c-1.178,1.238-1.907,3.229-1.974,4.281c-0.261,0.019-0.501,0.042-0.732,0.066c1.806,3.892,1.909,8.742,1.913,12.835
		c0.005,4.351,0.363,9.091-0.205,13.406c-0.3,2.275-1.394,4.336-2.934,5.743c0.998,3.279,0.708,6.7,0.708,6.7s-9.5,22.25-12,26
		s1.5,4,1.5,4l17,4.625c1.75,0.418,2.791-0.125,3.291-1.916c0.766-2.744,1.168-13.584,3.168-16.584S139.932,55.5,139.932,55.5
		h37.916l-0.041-15.584c0,0,0.125,0.584,2.457,0.25c0,40.148,33.912,74.346,44.751,79.959c2.884,1.494,3.75-0.25,4.5-1.625
		s9.416-15.332,10.75-18C241.598,97.834,242.931,96.834,238.931,94.168z M141.781,52.808l0.067-12.582l25.875,0.125
		c-1.029,0.398,1.125,12.25,1.125,12.25L141.781,52.808z"/>
</g>
<g id="Layer_3">
	<path stroke="#FFFFFF" d="M397.233,20.416c-0.625-1.25-0.5-11.625-0.5-11.625l-0.125-5.25l-5.125,0.125l-4.75,10.125l-4.75,7.25
		c0,0-18.748,0.41-26.75,0.25c-12.5-0.25-19.625-7.125-19.625-7.125l-0.375-4.75l-40.75-0.25c0,0,0.25-1.75-0.75-2
		s-49.5-0.125-49.5-0.125l-0.75-1.625c0,0-8.125,0-10.125,0.125s-4.375,2.75-6,3s-5.625,0.125-5.625,0.125l-0.125-6.875
		l-6.125-0.125c0,0-0.25,2.5,0,5.75c-0.606,0-1.44,0.001-2.456,0.002c0.009,0.141,0.018,0.283,0.016,0.431
		c-0.062,5.153-0.733,10.281-0.72,15.438c0.008,3.068-0.55,10.004,2.577,11.911c1.772,1.081,2.446,2.714,2.366,4.316
		c2.125-0.015,3.839-0.012,4.342,0.027c1.625,0.125,6.991,4.867,9.875,4.875c11.603,0.037,13.625-5.625,22.375-5.75
		c4.003-0.057,46.375,0,46.375,0v-7.375l100.125,0.125l0.125-9.875C400.483,21.541,397.858,21.666,397.233,20.416z"/>
</g>
</svg>
